<svg width="29" height="29" viewBox="0 0 29 29" fill="none" xmlns="http://www.w3.org/2000/svg">
<g id="close">
<path id="Icon" d="M6.67508 6.83103C7.13069 6.37542 7.86939 6.37542 8.325 6.83103L14.5 13.0061L20.6751 6.83103C21.1307 6.37542 21.8694 6.37542 22.325 6.83103C22.7806 7.28664 22.7806 8.02533 22.325 8.48094L16.15 14.656L22.325 20.831C22.7806 21.2866 22.7806 22.0253 22.325 22.4809C21.8694 22.9366 21.1307 22.9366 20.6751 22.4809L14.5 16.3059L8.325 22.4809C7.86939 22.9366 7.13069 22.9366 6.67508 22.4809C6.21947 22.0253 6.21947 21.2866 6.67508 20.831L12.8501 14.656L6.67508 8.48094C6.21947 8.02533 6.21947 7.28664 6.67508 6.83103Z" fill="white"/>
</g>
</svg>
