<svg width="20" height="21" viewBox="0 0 20 21" fill="none" xmlns="http://www.w3.org/2000/svg">
<g id="ph:football">
<path id="Vector" d="M17.8953 4.36617C17.8061 3.8402 17.5555 3.35499 17.1783 2.97775C16.801 2.60052 16.3158 2.34993 15.7898 2.2607C13.2609 1.83179 8.49375 1.6357 4.9875 5.14351C1.48125 8.65133 1.67578 13.4169 2.10469 15.9459C2.19416 16.4724 2.44532 16.958 2.82331 17.3353C3.20131 17.7126 3.68738 17.9628 4.21406 18.0513C5.10012 18.2024 5.99725 18.2793 6.89609 18.281C9.40312 18.281 12.525 17.656 15.0125 15.1685C18.5195 11.6623 18.3242 6.89507 17.8953 4.36617ZM13.082 3.27242C13.92 3.27538 14.7563 3.34855 15.582 3.49117C15.8525 3.53736 16.1018 3.66645 16.2957 3.86058C16.4895 4.0547 16.6183 4.30427 16.6641 4.57476C16.8252 5.50901 16.8959 6.45663 16.875 7.40445L12.7508 3.28101C12.8602 3.27476 12.9687 3.2732 13.082 3.2732V3.27242ZM4.41875 16.8201C4.14829 16.7741 3.89882 16.6452 3.70483 16.4512C3.51084 16.2572 3.38193 16.0077 3.33594 15.7373C3.17475 14.803 3.10411 13.8554 3.125 12.9076L7.24844 17.031C6.30061 17.0523 5.35295 16.9817 4.41875 16.8201ZM14.1297 14.2857C13.2227 15.1919 11.5305 16.4521 8.86641 16.8849L3.27109 11.2896C3.70391 8.62554 4.96406 6.93336 5.87031 6.02633C6.77656 5.11929 8.46875 3.85914 11.1328 3.42633L16.7289 9.02242C16.2961 11.6865 15.0359 13.3787 14.1297 14.2857ZM12.9406 7.21539C13.0577 7.33259 13.1235 7.49149 13.1235 7.65718C13.1235 7.82287 13.0577 7.98178 12.9406 8.09898L11.8203 9.21851L12.3156 9.71382C12.3774 9.77097 12.427 9.83999 12.4614 9.91676C12.4958 9.99353 12.5144 10.0765 12.516 10.1606C12.5177 10.2447 12.5023 10.3283 12.4708 10.4063C12.4393 10.4844 12.3924 10.5552 12.3329 10.6147C12.2734 10.6742 12.2025 10.721 12.1244 10.7524C12.0463 10.7838 11.9627 10.7991 11.8786 10.7974C11.7945 10.7958 11.7116 10.7771 11.6348 10.7426C11.5581 10.7081 11.4891 10.6584 11.432 10.5966L10.9375 10.1021L9.94609 11.0935L10.4414 11.5888C10.5032 11.6459 10.5529 11.7149 10.5874 11.7916C10.6219 11.8684 10.6405 11.9513 10.6422 12.0354C10.6439 12.1195 10.6286 12.2031 10.5972 12.2812C10.5658 12.3593 10.5189 12.4302 10.4595 12.4897C10.4 12.5492 10.3291 12.5961 10.2511 12.6276C10.1731 12.6591 10.0895 12.6744 10.0054 12.6728C9.92124 12.6712 9.8383 12.6526 9.76153 12.6182C9.68476 12.5838 9.61574 12.5342 9.55859 12.4724L9.0625 11.9763L7.94219 13.0966C7.88473 13.1571 7.81574 13.2055 7.7393 13.2389C7.66285 13.2723 7.58049 13.29 7.49708 13.2911C7.41366 13.2922 7.33088 13.2765 7.2536 13.2451C7.17632 13.2137 7.10612 13.1671 7.04713 13.1081C6.98815 13.0491 6.94156 12.9789 6.91013 12.9016C6.8787 12.8244 6.86306 12.7416 6.86413 12.6582C6.8652 12.5747 6.88295 12.4924 6.91635 12.4159C6.94975 12.3395 6.99811 12.2705 7.05859 12.213L8.17969 11.0935L7.68438 10.5982C7.57479 10.4796 7.51539 10.3231 7.51863 10.1616C7.52187 10.0001 7.58749 9.84616 7.70175 9.732C7.81601 9.61784 7.97003 9.55235 8.13152 9.54925C8.293 9.54615 8.44942 9.60569 8.56797 9.71539L9.06328 10.2107L10.0539 9.21851L9.55859 8.7232C9.4489 8.60465 9.38936 8.44823 9.39246 8.28675C9.39556 8.12526 9.46105 7.97124 9.57521 7.85698C9.68936 7.74273 9.84332 7.6771 10.0048 7.67386C10.1663 7.67062 10.3228 7.73002 10.4414 7.83961L10.9375 8.3357L12.0578 7.21539C12.175 7.0985 12.3337 7.03286 12.4992 7.03286C12.6647 7.03286 12.8235 7.0985 12.9406 7.21539Z" fill="white"/>
</g>
</svg>
