<svg width="145" height="52" viewBox="0 0 145 52" fill="none" xmlns="http://www.w3.org/2000/svg">
<path id="Rectangle 3" d="M140.267 6.47265L140.261 6.46335L138.021 3.10466C137.001 1.57485 135.284 0.656006 133.445 0.656006H22.7644C20.6859 0.656006 18.785 1.82769 17.851 3.68449L1.55547 36.0802C0.657943 37.8645 0.798276 39.9952 1.92209 41.6463L3.69097 44.2453L3.70988 44.2731L3.73234 44.2981L7.82054 48.8497C8.86369 50.0111 10.3512 50.6745 11.9123 50.6745H123.022C125.11 50.6745 127.018 49.4924 127.947 47.6229L143.45 16.4393C144.308 14.715 144.201 12.668 143.169 11.0425L140.267 6.47272L140.267 6.47265Z" fill="#3C303C" stroke="url(#paint0_linear_2083_185)"/>
<defs>
<linearGradient id="paint0_linear_2083_185" x1="144.258" y1="1.15601" x2="-2.89124" y2="50.1745" gradientUnits="userSpaceOnUse">
<stop stop-color="white"/>
<stop offset="1" stop-color="white" stop-opacity="0"/>
</linearGradient>
</defs>
</svg>
